<svg xmlns="http://www.w3.org/2000/svg" xmlns:xlink="http://www.w3.org/1999/xlink" width="2949" height="1692" shape-rendering="geometricPrecision" image-rendering="optimizeQuality" fill-rule="evenodd" xmlns:v="https://vecta.io/nano"><style><![CDATA[.B{fill:#fefffe}.C{opacity:.004}.D{opacity:.005}.E{opacity:.012}.F{opacity:.009}.G{opacity:.01}.H{opacity:.116}.I{opacity:.043}.J{opacity:.125}.K{opacity:.006}.L{opacity:.007}.M{opacity:.145}.N{opacity:.999}.O{opacity:.013}.P{opacity:.251}.Q{fill:#fcfdfe}.R{fill:#e7f2fb}.S{opacity:.153}.T{fill:#f2f7fc}.U{fill:#0170c7}]]></style><path fill="#10a1dc" d="M1290.5 61.5c92.32 3.828 183.32 17.662 273 41.5 24.81 6.881 49.14 15.048 73 24.5a1319.85 1319.85 0 0 0-204 71c-31.58-61.917-78.92-107.583-142-137z" opacity=".99"/><path fill="#9dd8f0" d="M1065.5 62.5c1.45-1.113 3.11-1.28 5-.5-1.63.493-3.3.66-5 .5z" opacity=".02"/><path fill="#0fa1dc" d="M1062.5 62.5c-69.672 34.509-119.172 87.842-148.5 160a217.14 217.14 0 0 0-7.5 28c-2.341 6.343-3.675 13.01-4 20v2c-.934 3.156-1.601 6.489-2 10a185.84 185.84 0 0 0-2 16v40c-.056 5.231.611 10.231 2 15v3c.51 3.483 1.177 6.816 2 10v2c-.178 3.622.489 6.956 2 10 .417 5.67 1.751 11.003 4 16 9.863 38.063 27.363 72.063 52.5 102l31.5 33c-11.798 22.19-18.131 45.857-19 71 1.029 29.258 8.863 56.591 23.5 82 24.87 40.901 55.04 77.735 90.5 110.5 73.16 65.654 152.82 122.154 239 169.5v82c-20.22 17.46-42.56 31.96-67 43.5-23.98 9.97-47.98 9.97-72 0-23.22-10.58-44.89-23.58-65-39-54.54-44.87-104.04-94.702-148.5-149.5-92.302-112.833-169.302-235.833-231-369a793.97 793.97 0 0 1-56-170c-6.932-35.465-8.265-71.131-4-107 6.159-36.492 23.326-66.658 51.5-90.5 25.439-20.398 53.439-36.731 84-49 63.634-23.991 129.301-39.658 197-47 15.64-1.897 31.3-3.397 47-4.5z" opacity=".996"/><path fill="#f5fbfd" d="M1062.5 62.5c2.48.62 2.48 1.62 0 3a321.42 321.42 0 0 0-30 16l-28 20-43 43c-10.782 14.118-20.782 28.785-30 44-5.213 9.759-9.88 19.759-14 30-3.54 10.959-7.206 21.626-11 32a217.14 217.14 0 0 1 7.5-28c29.328-72.158 78.828-125.491 148.5-160z" opacity=".135"/><path fill="#0271c7" d="M1440.5 928.5a180.91 180.91 0 0 0 39 24c1.01 1.174 2.35 1.84 4 2 1.01 1.174 2.35 1.84 4 2 1.01 1.174 2.35 1.84 4 2 1.77 1.392 3.77 2.559 6 3.5 6.54 2.679 13.2 4.846 20 6.5 16 6.341 32.67 10.341 50 12h3c5.44 1.384 11.11 2.05 17 2h40c4.18-.351 8.18-1.018 12-2h6c3.16-.49 6.16-1.156 9-2h1c9.75-.615 19.08-2.615 28-6 41.95-11.306 78.95-31.473 111-60.5 57.41-51.665 88.41-116.165 93-193.5.67-5.657 1-11.49 1-17.5.14-9.379-.52-18.545-2-27.5-5.79-58.572-27.96-109.905-66.5-154-26.43-29.626-57.27-53.293-92.5-71-.11-.617-.44-1.117-1-1.5 15.89-41.665 27.72-84.498 35.5-128.5a408.36 408.36 0 0 0 2-64c-2.45-31.061-15.61-56.561-39.5-76.5-25.97-20.41-54.47-36.577-85.5-48.5-1.03-.336-1.53-1.003-1.5-2 49.49-13.145 99.83-18.645 151-16.5 24.76 1.184 47.43 8.517 68 22 14.43 12.766 26.27 27.599 35.5 44.5 16.78 33.674 28.78 69.008 36 106a1153.64 1153.64 0 0 1 20.5 237.5c.52 128.668-12.98 255.834-40.5 381.5-10.18 45.719-24.51 90.052-43 133-8.75 19.18-19.75 36.85-33 53-15.13 16.48-33.96 25.31-56.5 26.5a344.11 344.11 0 0 1-100-9c-81.78-19.82-160.45-48.15-236-85-.66-15.43-1-30.927-1-46.5 0-15.682.67-31.015 2-46z" opacity=".995"/><path fill="#1787dd" d="M1636.5 127.5h1c-.03.997.47 1.664 1.5 2 31.03 11.923 59.53 28.09 85.5 48.5 23.89 19.939 37.05 45.439 39.5 76.5a408.36 408.36 0 0 1-2 64c-7.78 44.002-19.61 86.835-35.5 128.5.56.383.89.883 1 1.5a247.72 247.72 0 0 0-76-22c-5.1-1.457-10.43-2.124-16-2h-3c-.42-.722-1.08-1.222-2-1.5l-24-.5c-11.21-.21-22.21.456-33 2-8.28.42-16.28 1.753-24 4-2.93.065-5.59.732-8 2-7.81.609-15.14 2.609-22 6-2.29.095-4.29.762-6 2-8.52 2.263-16.52 5.596-24 10-4.59.96-8.59 2.96-12 6-58.89 32.062-102.06 78.729-129.5 140a233.26 233.26 0 0 0-15.5 54c-1.29 3.767-1.96 7.767-2 12v1c-2.23 9.398-3.23 19.065-3 29l-1 272c-86.18-47.346-165.84-103.846-239-169.5-35.46-32.765-65.63-69.599-90.5-110.5-14.637-25.409-22.471-52.742-23.5-82 .869-25.143 7.202-48.81 19-71 28.56 24.96 60.9 43.794 97 56.5a12.92 12.92 0 0 0 5 .5c14.69 5.74 30.03 9.074 46 10h2c4.44 1.301 9.11 1.968 14 2h42c4.47-.551 8.81-1.217 13-2h5c3.54-.253 6.87-.919 10-2h2c3.54-.253 6.87-.919 10-2 5.67-.417 11-1.751 16-4 12.04-2.234 23.37-6.234 34-12 66.34-29.501 115.17-77.168 146.5-143a214.9 214.9 0 0 0 11.5-33v-1c1.42-2.015 2.09-4.348 2-7 .96-1.802 1.62-3.802 2-6 .78-3.27 1.78-6.603 3-10a3423.29 3423.29 0 0 0-117-1c-10.22 27.916-26.55 51.749-49 71.5a184.99 184.99 0 0 1-59 33.5c-9.88 1.509-19.55 3.509-29 6h-1-42-1c-3.45-1.187-7.11-1.854-11-2-32.66-6.992-60.66-22.325-84-46 36.88-37.399 76.88-70.899 120-100.5 48.05-33.175 98.05-63.342 150-90.5 2.9 4.672 5.23 9.672 7 15 38.5.999 77.16 1.332 116 1 .27-1.599-.07-2.932-1-4a234.05 234.05 0 0 0-20-61 1319.85 1319.85 0 0 1 204-71z" class="N"/><use xlink:href="#B" class="B E"/><path fill="#f2f9fd" d="M1165.5 150.5v1a261.51 261.51 0 0 0-27 3c2.9-1.604 6.24-2.604 10-3 5.63-.995 11.29-1.329 17-1z" opacity=".211"/><path fill="#10a1dc" d="M1165.5 151.5a211.56 211.56 0 0 1 59 5h1c47.65 15.641 82.65 45.975 105 91-51.95 27.158-101.95 57.325-150 90.5-43.12 29.601-83.12 63.101-120 100.5-20.23-19.79-34.9-43.124-44-70-1.73-9.512-3.73-18.845-6-28v-43a931.11 931.11 0 0 0 6-29c19.51-52.846 55.51-89.513 108-110 2.29-.095 4.29-.762 6-2 2.65.09 4.99-.576 7-2h1a261.51 261.51 0 0 1 27-3z" opacity=".998"/><path fill="#d5edf8" d="M1165.5 151.5v-1c13.68-.333 27.35.001 41 1 6.48.812 12.48 2.479 18 5a211.56 211.56 0 0 0-59-5z" opacity=".096"/><use xlink:href="#B" x="-24" y="8" class="B E"/><path fill="#fafdfe" d="M1137.5 154.5c-2.01 1.424-4.35 2.09-7 2 1.78-1.844 4.11-2.51 7-2z" opacity=".193"/><path fill="#fbfdfe" d="M1130.5 156.5c-1.71 1.238-3.71 1.905-6 2 1.42-1.808 3.42-2.475 6-2z" opacity=".16"/><g class="B"><use xlink:href="#B" x="-40" y="16" class="E"/><use xlink:href="#B" x="-56" y="24" class="E"/></g><path fill="#f3fafd" d="M1225.5 156.5c6.52.837 12.85 2.503 19 5 28.34 12.339 52 30.672 71 55 9.4 14.811 17.74 30.145 25 46h-3c-1.77-5.328-4.1-10.328-7-15-22.35-45.025-57.35-75.359-105-91z" opacity=".124"/><use xlink:href="#B" x="-64" y="32" class="B E"/><path fill="#f3f9fd" d="M1290.5 61.5c63.08 29.417 110.42 75.083 142 137a234.05 234.05 0 0 1 20 61c.21 1.679-.45 2.679-2 3a60.67 60.67 0 0 0-3-18c-11.06-36.795-28.39-70.128-52-100l-43-43c-12.32-9.161-24.99-17.828-38-26a192.99 192.99 0 0 0-24-11v-3z" opacity=".26"/><use xlink:href="#B" x="-72" y="40" class="B E"/><path fill="#f6fbfd" d="M1124.5 158.5c-52.49 20.487-88.49 57.154-108 110 1.32-7.625 3.65-14.959 7-22 19.28-39.282 48.95-67.615 89-85 3.87-1.626 7.87-2.626 12-3z" opacity=".199"/><g class="B"><use xlink:href="#B" x="-80" y="48" class="E"/><use xlink:href="#B" x="-88" y="56" class="E"/><use xlink:href="#B" x="-96" y="64" class="E"/><use xlink:href="#B" x="-104" y="80" class="O"/><use xlink:href="#B" x="-112" y="88" class="O"/></g><path fill="#f1f9fc" d="M906.5 250.5c-.098 7.156-1.431 13.823-4 20 .325-6.99 1.659-13.657 4-20z" opacity=".079"/><use xlink:href="#B" x="-120" y="112" class="B O"/><path fill="#cde5f7" d="M1452.5 259.5c.93 1.068 1.27 2.401 1 4-38.84.332-77.5-.001-116-1h3 110c1.55-.321 2.21-1.321 2-3z" class="P"/><path fill="#fafdfe" d="M902.5 272.5c.569 3.829-.098 7.163-2 10 .399-3.511 1.066-6.844 2-10z" opacity=".083"/><path fill="#f7fcfd" d="M1016.5 268.5a931.11 931.11 0 0 1-6 29c0-10.308 2-19.975 6-29z" opacity=".32"/><path fill="#def1fa" d="M900.5 282.5c.613 5.771-.054 11.104-2 16a185.84 185.84 0 0 1 2-16z" opacity=".068"/><path fill="#eef8fc" d="M1010.5 340.5c2.27 9.155 4.27 18.488 6 28-1.54-1.525-2.54-3.525-3-6a94.08 94.08 0 0 1-3-22z" opacity=".313"/><path fill="#b2def3" d="M898.5 338.5c1.942 4.556 2.608 9.556 2 15-1.389-4.769-2.056-9.769-2-15z" opacity=".6"/><path fill="#f5fbfd" d="M900.5 356.5c1.902 2.837 2.569 6.171 2 10-.823-3.184-1.49-6.517-2-10z" opacity=".065"/><path fill="#e5f4fb" d="M902.5 368.5c1.902 2.837 2.569 6.171 2 10-1.511-3.044-2.178-6.378-2-10z" opacity=".054"/><path fill="#eff6fc" d="M1450.5 386.5v-10c-36.67-.333-73.34 0-110 1l-3 3c-5.11 13.552-11.77 26.218-20 38-14.49 18.499-31.49 34.165-51 47a116.56 116.56 0 0 1-38 15 184.99 184.99 0 0 0 59-33.5c22.45-19.751 38.78-43.584 49-71.5a3423.29 3423.29 0 0 1 117 1c-1.22 3.397-2.22 6.73-3 10z" opacity=".089"/><path fill="#f7fcfd" d="M904.5 378.5c2.536 4.81 3.87 10.144 4 16-2.249-4.997-3.583-10.33-4-16z" opacity=".101"/><path d="M1450.5 386.5c-.38 2.198-1.04 4.198-2 6-.47-2.582.19-4.582 2-6z" opacity=".196" class="Q"/><path fill="#fafcfe" d="M1448.5 392.5c.09 2.652-.58 4.985-2 7-.51-2.888.16-5.221 2-7z" opacity=".275"/><path fill="#d5e7f8" d="M1632.5 424.5h-57-2c10.79-1.544 21.79-2.21 33-2l24 .5c.92.278 1.58.778 2 1.5z" class="P"/><path fill="#f0f7fc" d="M1635.5 424.5c5.57-.124 10.9.543 16 2-5.77.613-11.1-.054-16-2z" opacity=".177"/><path fill="#e0eefa" d="M1573.5 424.5h2c-8.24 2.418-16.9 3.751-26 4 7.72-2.247 15.72-3.58 24-4z" opacity=".161"/><path d="M1549.5 428.5c-2.14 1.869-4.8 2.536-8 2 2.41-1.268 5.07-1.935 8-2z" opacity=".152" class="R"/><path fill="#e4f0fb" d="M1541.5 430.5c-4.33 1.938-8.99 3.605-14 5-2.59.98-5.25 1.313-8 1 6.86-3.391 14.19-5.391 22-6z" opacity=".169"/><path fill="#ecf5fc" d="M1519.5 436.5c-1.42 1.808-3.42 2.475-6 2 1.71-1.238 3.71-1.905 6-2z" class="J"/><path fill="#f5fafd" d="M1016.5 368.5c9.1 26.876 23.77 50.21 44 70 23.34 23.675 51.34 39.008 84 46-10.34-.752-20.34-3.085-30-7-14.98-6.483-28.98-14.483-42-24-14.48-13.137-27.48-27.471-39-43-5.88-11.092-11.21-22.425-16-34a16.91 16.91 0 0 1-1-8z" opacity=".179"/><path fill="#ecf5fc" d="M1513.5 438.5c-5.7 3.153-11.7 6.153-18 9a9.87 9.87 0 0 1-6 1c7.48-4.404 15.48-7.737 24-10z" opacity=".196"/><path d="M1489.5 448.5c-3.36 3.015-7.36 5.015-12 6 3.41-3.04 7.41-5.04 12-6z" class="J R"/><path fill="#f0f6fc" d="M1477.5 454.5c-.58 1.757-1.75 3.09-3.5 4-7.42 3.751-14.58 7.918-21.5 12.5-26.7 19.865-50.37 43.031-71 69.5l-16 24-16 32c-6.32 17.358-11.99 34.691-17 52a233.26 233.26 0 0 1 15.5-54c27.44-61.271 70.61-107.938 129.5-140z" class="H"/><g class="B"><use xlink:href="#C" class="C"/><use xlink:href="#C" x="-8" y="8" class="C"/></g><path fill="#e3effa" d="M1228.5 480.5c-1.53 1.536-3.53 2.536-6 3a93.39 93.39 0 0 1-23 3c9.45-2.491 19.12-4.491 29-6z" opacity=".151"/><path fill="#fafcfe" d="M1144.5 484.5c3.89.146 7.55.813 11 2-4.15.58-7.82-.086-11-2z" opacity=".183"/><path fill="#e7f1fb" d="M1156.5 486.5h42c-6.63 1.33-13.63 1.997-21 2-7.37-.003-14.37-.67-21-2z" opacity=".26"/><use xlink:href="#C" x="-16" y="16" class="B C"/><path fill="#f5f9fd" d="M1446.5 400.5a214.9 214.9 0 0 1-11.5 33c-31.33 65.832-80.16 113.499-146.5 143l34-19 30-22 45-45 12-16c4.83-9.001 10.17-17.668 16-26 7.65-15.945 14.65-31.945 21-48z" opacity=".258"/><g class="B"><use xlink:href="#C" x="-24" y="24" class="C"/><use xlink:href="#C" x="-32" y="32" class="C"/><use xlink:href="#C" x="-40" y="40" class="C"/><use xlink:href="#D" class="D"/><use xlink:href="#D" x="-8" y="8" class="D"/><path d="M1554.5 531.5c.45-3.174 1.45-3.507 3-1-.63 2.019-1.63 2.353-3 1z" class="D"/><path d="M1554.5 531.5c-.14 1.837-.81 2.17-2 1 .46-.798 1.12-1.131 2-1z" class="C"/></g><path fill="#c8e0f6" d="M1594.5 535.5v-1c14.04-.649 27.71.018 41 2-13.65-.838-27.32-1.171-41-1z" opacity=".172"/><path fill="#1787dd" d="M1594.5 535.5c13.68-.171 27.35.162 41 1h1c2.81.975 5.81 1.642 9 2h1c2.1 1.112 4.43 1.779 7 2h1c9.57 3.449 18.9 7.449 28 12-37.25 73.19-78.09 144.19-122.5 213l-50.5 74c-39.19-28.732-62.19-67.066-69-115v-5c-.42-16.4.24-32.733 2-49v-2-3c1.11-2.099 1.78-4.433 2-7 16.46-51.298 49.12-88.464 98-111.5 16.64-6.696 33.98-10.53 52-11.5z" class="N"/><g class="B"><use xlink:href="#D" x="-16" y="16" class="D"/><use xlink:href="#D" x="184" y="16" class="D"/></g><path fill="#edf5fc" d="M1636.5 536.5c3.51-.555 6.51.112 9 2-3.19-.358-6.19-1.025-9-2z" opacity=".133"/><path fill="#e9f3fb" d="M1646.5 538.5c2.89-.51 5.22.156 7 2-2.57-.221-4.9-.888-7-2z" opacity=".122"/><g class="B"><use xlink:href="#D" x="-32" y="24" class="D"/><path d="M1522.5 544.5c3.36.703 3.69 2.037 1 4-.93-1.189-1.26-2.522-1-4z" class="D"/></g><path fill="#f2f8fd" d="M908.5 394.5c28.109 84.46 82.776 145.46 164 183l18 6c1.83.557 3.16 1.557 4 3a12.92 12.92 0 0 1-5-.5c-36.1-12.706-68.44-31.54-97-56.5l-31.5-33c-25.137-29.937-42.637-63.937-52.5-102z" opacity=".131"/><g class="B"><use xlink:href="#D" x="-40" y="32" class="D"/><path d="M1506.5 552.5h3v4h-3v-4z" class="K"/></g><path fill="#0271c7" d="M1682.5 552.5c4.18 2.257 8.52 4.257 13 6a368.67 368.67 0 0 1 26 20c.33 1 1 1.667 2 2 .33 1 1 1.667 2 2 .33 1 1 1.667 2 2 .33 1 1 1.667 2 2 .33 1 1 1.667 2 2l16 20c.85 2.382 2.18 4.382 4 6 1.5 3.673 3.5 7.006 6 10 .16 1.653.83 2.986 2 4 .16 1.653.83 2.986 2 4-.1 2.053.57 3.72 2 5v1c.43 1.21 1.1 2.21 2 3v1c.3 1.903.96 3.57 2 5v1c.22 2.567.89 4.901 2 7v1c.49 1.495 1.16 2.829 2 4 5.26 27.689 5.26 55.355 0 83-1.04 1.43-1.7 3.097-2 5v2c-1.24 1.714-1.91 3.714-2 6-1.24 1.714-1.91 3.714-2 6-1.24 1.714-1.91 3.714-2 6-1.17 1.014-1.84 2.347-2 4-1.17 1.014-1.84 2.347-2 4-1.17 1.014-1.84 2.347-2 4-1.17 1.014-1.84 2.347-2 4-2.5 2.994-4.5 6.327-6 10-14.85 20.012-32.51 37.179-53 51.5a388.32 388.32 0 0 1-23 12.5c-3.64.763-6.97 2.097-10 4-5.03.464-9.7 1.797-14 4-7.26.587-14.26 1.921-21 4h-35c-4.75-1.531-9.75-2.198-15-2h-5c-23.31-5.321-44.64-14.988-64-29l50.5-74c44.41-68.81 85.25-139.81 122.5-213z" opacity=".997"/><path fill="#eaf3fb" d="M1654.5 540.5c6.52.837 12.85 2.503 19 5l20 10c1.11.765 1.78 1.765 2 3-4.48-1.743-8.82-3.743-13-6-9.1-4.551-18.43-8.551-28-12z" opacity=".141"/><g class="B"><use xlink:href="#D" x="-56" y="40" class="D"/><path d="M1498.5 560.5h3v4h-3v-4z" class="K"/></g><path fill="#f3f8fd" d="M1594.5 534.5v1c-18.02.97-35.36 4.804-52 11.5-48.88 23.036-81.54 60.202-98 111.5.63-6.893 2.3-13.56 5-20 3.61-9.891 8.28-19.224 14-28 16.66-23.16 36.99-42.327 61-57.5 16.69-8.515 34.35-14.348 53-17.5 5.63-.995 11.29-1.329 17-1z" opacity=".199"/><path fill="#edf4fb" d="M1695.5 558.5c10.49 4.25 19.15 10.916 26 20a368.67 368.67 0 0 0-26-20z" opacity=".141"/><g class="B"><use xlink:href="#E" class="D"/><path d="M1490.5 568.5h3v4h-3v-4z" class="K"/><use xlink:href="#E" x="-24" y="8" class="D"/></g><path fill="#f4f9fd" d="M1288.5 576.5c-10.63 5.766-21.96 9.766-34 12a650.75 650.75 0 0 1 28-11 9.87 9.87 0 0 1 6-1z" opacity=".19"/><path d="M1482.5 576.5h3v4h-3v-4z" class="B K"/><use xlink:href="#F" fill="#f8fbfd" class="I"/><use xlink:href="#F" x="2" y="2" fill="#f6fafd" class="I"/><use xlink:href="#F" x="4" y="4" fill="#f8fbfd" class="I"/><g class="B"><use xlink:href="#E" x="-56" y="16" class="D"/><use xlink:href="#E" x="192" y="16" class="D"/></g><use xlink:href="#F" x="6" y="6" fill="#fafcfd" class="I"/><use xlink:href="#F" x="8" y="8" fill="#f9fbfd" class="I"/><path d="M1094.5 586.5a1373.02 1373.02 0 0 1 46 10c-15.97-.926-31.31-4.26-46-10z" opacity=".112" class="R"/><path fill="#f5fafd" d="M1254.5 588.5c-5 2.249-10.33 3.583-16 4 4.81-2.536 10.14-3.87 16-4z" opacity=".147"/><path fill="#f0f7fc" d="M1238.5 592.5c-3.13 1.081-6.46 1.747-10 2 2.84-1.902 6.17-2.569 10-2z" opacity=".147"/><path d="M1466.5 592.5h3v4h-3v-4z" class="B L"/><path fill="#f1f8fc" d="M1226.5 594.5c-3.13 1.081-6.46 1.747-10 2 2.84-1.902 6.17-2.569 10-2z" opacity=".17"/><path fill="#ddecf9" d="M1142.5 596.5c5.12-.603 9.79.064 14 2-4.89-.032-9.56-.699-14-2z" opacity=".157"/><path fill="#f7fafd" d="M1211.5 596.5c-4.19.783-8.53 1.449-13 2 3.87-1.93 8.21-2.597 13-2z" opacity=".191"/><path fill="#eff6fb" d="M1731.5 588.5c7.6 4.925 12.93 11.592 16 20l-16-20z" opacity=".151"/><path d="M1458.5 600.5h3v4h-3v-4z" class="B L"/><path fill="#ebf3fa" d="M1747.5 608.5c2.81.946 4.15 2.946 4 6-1.82-1.618-3.15-3.618-4-6z" opacity=".113"/><use xlink:href="#E" x="168" y="48" class="B D"/><path fill="#f0f6fb" d="M1751.5 614.5c1.23.221 2.23.888 3 2 1.58 2.49 2.58 5.157 3 8-2.5-2.994-4.5-6.327-6-10z" opacity=".156"/><path fill="#f1f7fc" d="M1757.5 624.5c1.68.683 2.34 2.017 2 4-1.17-1.014-1.84-2.347-2-4z" class="M"/><path fill="#f4f9fc" d="M1759.5 628.5c1.68.683 2.34 2.017 2 4-1.17-1.014-1.84-2.347-2-4z" class="S"/><path d="M1442.5 632.5h3v4h-3v-4z" class="B L"/><path fill="#eaf3fa" d="M1761.5 632.5c1.76 1.052 2.42 2.719 2 5-1.43-1.28-2.1-2.947-2-5z" opacity=".162"/><path d="M1763.5 638.5c1.55.321 2.21 1.321 2 3-.9-.79-1.57-1.79-2-3z" class="H T"/><path fill="#eef6fb" d="M1765.5 642.5c1.76 1.052 2.42 2.719 2 5-1.04-1.43-1.7-3.097-2-5z" class="M"/><path fill="#d4e5f5" d="M1767.5 648.5c1.84 1.779 2.51 4.112 2 7-1.11-2.099-1.78-4.433-2-7z" class="S"/><path fill="#e1eefa" d="M1332.5 648.5c.59 4.471-.08 8.471-2 12 .04-4.233.71-8.233 2-12z" opacity=".024"/><path d="M1434.5 656.5h3v4h-3v-4z" class="B L"/><path d="M1769.5 656.5c1.68.683 2.34 2.017 2 4-.84-1.171-1.51-2.505-2-4z" class="S T"/><path d="M1444.5 658.5c-.22 2.567-.89 4.901-2 7-.51-2.888.16-5.221 2-7z" opacity=".248" class="Q"/><path fill="#fbfdfe" d="M1442.5 668.5v2l-2 5c-.51-2.888.16-5.221 2-7z" opacity=".23"/><path fill="#9cc6e8" d="M1886.5 673.5c1.48 8.955 2.14 18.121 2 27.5 0 6.01-.33 11.843-1 17.5a1298.36 1298.36 0 0 0-1-45z"/><path fill="#eef6fc" d="M1440.5 680.5c-1.3 13.128-1.3 26.128 0 39v5c-1.33-6.968-2-14.302-2-22s.67-15.032 2-22z" opacity=".494"/><path fill="#6cafe8" d="M1442.5 670.5c-1.76 16.267-2.42 32.6-2 49-1.3-12.872-1.3-25.872 0-39v-5l2-5z" opacity=".992"/><path fill="#f4f8fc" d="M1651.5 426.5a247.72 247.72 0 0 1 76 22c35.23 17.707 66.07 41.374 92.5 71 38.54 44.095 60.71 95.428 66.5 154a1298.36 1298.36 0 0 1 1 45c-4.59 77.335-35.59 141.835-93 193.5-32.05 29.027-69.05 49.194-111 60.5l42-17c28.37-13.698 53.37-32.031 75-55 1.32-2.968 2.99-5.634 5-8 1.92-.906 3.58-2.239 5-4 8.51-12.52 18.51-23.854 30-34 45.14-71.533 56.47-148.2 34-230-7.21-24.99-17.88-48.323-32-70-25.09-36.42-56.09-66.754-93-91-30.73-18.053-63.39-30.386-98-37z" opacity=".258"/><path fill="#d1e3f4" d="M1771.5 743.5c.42 2.281-.24 3.948-2 5 .3-1.903.96-3.57 2-5z" class="H"/><use xlink:href="#G" opacity=".008" class="B"/><use xlink:href="#H" fill="#d0e3f4" opacity=".227"/><use xlink:href="#H" x="-2" y="6" fill="#cce0f3" opacity=".227"/><use xlink:href="#H" x="-4" y="12" fill="#e3eef8" class="M"/><use xlink:href="#I" fill="#edf4fb" class="M"/><use xlink:href="#I" x="-2" y="4" fill="#e9f2fa" class="H"/><use xlink:href="#I" x="-4" y="8" fill="#e3eff8" class="H"/><use xlink:href="#I" x="-6" y="12" fill="#e5f0f9" opacity=".118"/><use xlink:href="#G" x="-8" y="32" class="B F"/><path fill="#edf4fa" d="M1755.5 784.5c-.42 2.843-1.42 5.51-3 8-.77 1.112-1.77 1.779-3 2 1.5-3.673 3.5-7.006 6-10z" opacity=".144"/><path fill="#f1f7fc" d="M1440.5 724.5c6.81 47.934 29.81 86.268 69 115 19.36 14.012 40.69 23.679 64 29-5.9.218-11.57-.616-17-2.5-48.41-15.547-83.41-46.714-105-93.5-6.82-15.284-10.49-31.284-11-48z" opacity=".236"/><use xlink:href="#G" x="-16" y="48" class="B F"/><path fill="#ebf3fa" d="M1749.5 794.5c.26 1.478-.07 2.811-1 4-15.18 21.849-34.18 39.516-57 53-5.62 3.482-11.62 5.816-18 7a388.32 388.32 0 0 0 23-12.5c20.49-14.321 38.15-31.488 53-51.5z" opacity=".169"/><path fill="#f7fbfd" d="M1330.5 661.5l-2 381-1-352c-.23-9.935.77-19.602 3-29z" opacity=".031"/><g class="B"><use xlink:href="#G" x="-24" y="72" class="F"/><path d="M1841.5 832.5h4c.17 2.991-1.16 4.991-4 6-1.19-2.016-1.19-4.016 0-6z" class="F"/><use xlink:href="#G" x="-40" y="96" class="F"/><use xlink:href="#G" x="-48" y="104" class="F"/></g><path fill="#edf4fa" d="M1673.5 858.5c-2.56 2.863-5.89 4.196-10 4 3.03-1.903 6.36-3.237 10-4z" opacity=".165"/><path fill="#ddebf7" d="M1663.5 862.5c-1.53 1.536-3.53 2.536-6 3-2.59.98-5.25 1.313-8 1 4.3-2.203 8.97-3.536 14-4z" opacity=".132"/><use xlink:href="#G" x="-56" y="112" class="B G"/><path d="M1573.5 868.5h5l7 2c-4.47.589-8.47-.077-12-2z" opacity=".19" class="Q"/><path fill="#e3eef8" d="M1649.5 866.5c-2.9 1.604-6.24 2.604-10 3-3.61.989-7.27 1.323-11 1 6.74-2.079 13.74-3.413 21-4z" opacity=".191"/><path fill="#589bd8" d="M1578.5 868.5c5.25-.198 10.25.469 15 2h-8l-7-2z" class="P"/><g class="B"><use xlink:href="#J" class="F"/><path d="M1805.5 892.5c-1.52.011-2.68.677-3.5 2-2.25-3.82-1.09-5.82 3.5-6v4z" class="F"/><use xlink:href="#J" x="-16" y="24" class="F"/><use xlink:href="#J" x="-24" y="32" class="G"/><use xlink:href="#J" x="-32" y="40" class="G"/><path d="M1434.5 920.5h3v4h-3v-4z" class="E"/><use xlink:href="#J" x="-48" y="48" class="G"/></g><path fill="#eff5fb" d="M1479.5 952.5a180.91 180.91 0 0 1-39-24c.34-1.725 1.34-2.225 3-1.5 10.41 8.913 21.74 16.413 34 22.5 1.11.765 1.78 1.765 2 3z" opacity=".121"/><g class="B"><use xlink:href="#C" x="349" y="456" class="C"/><use xlink:href="#C" x="333" y="464" class="C"/><use xlink:href="#C" x="317" y="472" class="C"/></g><use xlink:href="#K" fill="#eef5fb" class="J"/><use xlink:href="#C" x="301" y="480" class="B C"/><use xlink:href="#K" x="4" y="2" fill="#f2f8fc" class="J"/><use xlink:href="#K" x="8" y="4" fill="#f0f6fb" opacity=".094"/><use xlink:href="#C" x="285" y="488" class="B C"/><path fill="#e6f0f9" d="M1491.5 958.5a9.87 9.87 0 0 1 6 1c7.08 2.551 13.75 5.551 20 9-6.8-1.654-13.46-3.821-20-6.5-2.23-.941-4.23-2.108-6-3.5z" opacity=".105"/><use xlink:href="#C" x="253" y="496" class="B C"/><path fill="#e4eff9" d="M1517.5 968.5c17 3.393 33.67 7.393 50 12-17.33-1.659-34-5.659-50-12z" opacity=".113"/><path d="M1683.5 972.5c-8.92 3.385-18.25 5.385-28 6 5.64-2.014 11.64-3.681 18-5a25.88 25.88 0 0 1 10-1z" opacity=".148" class="T"/><path fill="#fbfcfe" d="M1654.5 978.5c-2.84.844-5.84 1.51-9 2 2.49-1.888 5.49-2.555 9-2z" opacity=".128"/><path fill="#d6e7f5" d="M1570.5 980.5c6.1-.617 11.76.05 17 2-5.89.05-11.56-.616-17-2z" opacity=".194"/><path fill="#eff6fb" d="M1639.5 980.5c-3.82.982-7.82 1.649-12 2 3.53-1.923 7.53-2.589 12-2z" opacity=".173"/><path fill="#e7f5fb" d="M1370.5 1000.5c3.46.17 3.79 1.17 1 3-.89-.82-1.22-1.82-1-3z" class="G"/><path d="M1434.5 1000.5h3v4h-3v-4z" opacity=".015" class="B"/><path fill="#e1f2fa" d="M1362.5 1008.5c3.46.17 3.79 1.17 1 3-.89-.82-1.22-1.82-1-3z" class="G"/><path fill="#93ccee" d="M1327.5 690.5l1 352a2.99 2.99 0 0 1-2 2v-82l1-272z" opacity=".513"/><path fill="#e6f5fb" d="M1354.5 1016.5c3.63-.06 3.8.94.5 3-.48-.95-.65-1.95-.5-3z" class="G"/><path fill="#f5f9fc" d="M1434.5 1016.5h3c-.75 3.81-1.75 3.81-3 0z" opacity=".015"/><path fill="#ddf1f9" d="M1346.5 1024.5c1.84.14 2.17.81 1 2-.8-.46-1.13-1.12-1-2z" class="E"/><path fill="#edf8fc" d="M1338.5 1032.5c1.33.67 1.33.67 0 0z" class="C"/><path d="M2127.5 1101.5h29l1.5 357c3.58 13.68 11.75 23.51 24.5 29.5a50.68 50.68 0 0 0 18 3.5v29c-31.81-.48-54.31-15.15-67.5-44-1.54-4.27-2.87-8.61-4-13l-1.5-362z" opacity=".946" class="U"/><path fill="#131313" d="M2821.5 1126.5c42.13-1.35 68.3 18.32 78.5 59 3.22 35.74-11.28 61.24-43.5 76.5-36.2 11.27-65.04 1.43-86.5-29.5-16.93-34.94-11.1-65.44 17.5-91.5 10.34-7.34 21.67-12.18 34-14.5zm4 9c29.6-.13 50.43 13.2 62.5 40 8.9 31.67-.26 56.5-27.5 74.5-30.91 13.81-57.41 7.98-79.5-17.5-15.57-24.58-15.24-48.91 1-73 11.36-13.89 25.86-21.89 43.5-24z" class="N"/><path fill="#060606" d="M2823.5 1180.5h-15v41h-8v-41h-15c-.97-2.45-1.31-5.11-1-8a757.03 757.03 0 0 1 39 .5c1.31 2.6 1.31 5.1 0 7.5z" opacity=".969"/><path fill="#111" d="M2867.5 1221.5a718.58 718.58 0 0 0-.5-38c-1.19 1.06-1.69 2.4-1.5 4-1.88 11.18-4.54 22.18-8 33-3.21 1.29-6.38 1.29-9.5 0a1182.69 1182.69 0 0 1-9-33c.6 10.95.6 21.95 0 33-3.06.95-6.22 1.28-9.5 1v-49c5.04-.33 10.04.01 15 1l8.5 30 7.5-31h16a1146.58 1146.58 0 0 1-.5 48c-2.72.94-5.55 1.28-8.5 1z" opacity=".988"/><path fill="#393939" d="M2785.5 1180.5h15v41c-1-13.16-1.33-26.49-1-40-4.86.32-9.53-.01-14-1z" opacity=".584"/><path fill="#3c3c3c" d="M2823.5 1180.5c-4.47.99-9.14 1.32-14 1 .33 13.51 0 26.84-1 40v-41h15z" opacity=".559"/><g class="U"><path d="M504.5 1188.5c38.919-4.08 72.585 7.08 101 33.5-7.514 7.68-15.181 15.18-23 22.5-23.33-21.5-50.664-29-82-22.5-62.698 16.04-96.365 56.37-101 121 3.099 53.4 28.766 91.4 77 114 25.687 10.02 51.687 11.02 78 3 10.534-4.43 19.867-10.59 28-18.5 7.819 7.32 15.486 14.82 23 22.5-36.558 32.78-78.558 42.12-126 28-64.161-21.83-100.995-66.33-110.5-133.5-3.847-65.81 21.987-115.98 77.5-150.5 18.278-10.04 37.612-16.54 58-19.5z" opacity=".958"/><path d="M767.5 1189.5c55.849-3.98 102.015 15.02 138.5 57 18.207 23.6 29.207 50.27 33 80l.5 166h-32a1403.91 1403.91 0 0 0-.5-53c-35.937 44.04-82.437 63.54-139.5 58.5-65.22-10.18-108.72-46.34-130.5-108.5-15.404-58.72-2.737-110.38 38-155 25.942-25.05 56.775-40.05 92.5-45zm2 32c53.377-3.56 94.21 17.1 122.5 62 23.556 47.41 20.222 92.74-10 136-39.786 45.74-88.286 58.24-145.5 37.5-41.302-19.74-65.802-52.24-73.5-97.5-4.049-53.4 16.451-94.24 61.5-122.5 14.266-7.7 29.266-12.87 45-15.5z" opacity=".963"/><path d="M1127.5 1190.5h18a252.13 252.13 0 0 1-1 31.5c-60.15 3.82-99.65 34.32-118.5 91.5-1.13 5.31-2.13 10.64-3 16l-1 163c-10.33 1.33-20.67 1.33-31 0v-161c6.902-59.86 37.4-102.7 91.5-128.5 14.56-6.22 29.56-10.39 45-12.5z" opacity=".951"/></g><path fill="#0171c7" d="M1472.5 1330.5c0 .67-.33 1-1 1h-117v30 1h-158c9.8 53.97 41.14 88.47 94 103.5 33.19 8.24 62.36 1.08 87.5-21.5a324.66 324.66 0 0 1 22 21c.67.67.67 1.33 0 2-27.91 26.41-61.08 37.25-99.5 32.5-61.28-9.3-103.78-42.47-127.5-99.5-19.74-60.97-8.41-115.3 34-163 49.94-46.45 107.1-57.95 171.5-34.5 54.31 25.41 85.64 67.91 94 127.5zm-170-107c52.65-4.09 93.15 15.91 121.5 60 8.62 14.57 13.79 30.23 15.5 47h-243c5.74-39.34 25.41-69.51 59-90.5 14.85-8.23 30.52-13.73 47-16.5z" opacity=".961"/><path fill="#5c5c5c" d="M2867.5 1221.5l-2-34c-.19-1.6.31-2.94 1.5-4a718.58 718.58 0 0 1 .5 38z" opacity=".272"/><g class="U"><path d="M1824.5 1194.5h18a252.13 252.13 0 0 1-1 31.5c-60.15 3.82-99.65 34.32-118.5 91.5-1.13 5.31-2.13 10.64-3 16l-.5 163h-32l.5-161c6.9-59.86 37.4-102.7 91.5-128.5 14.56-6.22 29.56-10.39 45-12.5zm55 39c60.85-4.16 107.68 19.18 140.5 70 27.51 50.21 27.18 100.21-1 150-33.38 49.94-80.22 72.44-140.5 67.5-39.16-4.99-71-22.83-95.5-53.5l-.5 186h-31l.5-276c3.61-68.92 37.77-115.09 102.5-138.5a257.14 257.14 0 0 1 25-5.5zm1 30c49.32-3.59 87.49 15.08 114.5 56 26.19 52.66 19.03 100.16-21.5 142.5-31.42 27.19-67.42 35.85-108 26-46.9-15.57-74.4-47.74-82.5-96.5-3.86-48.45 14.31-85.95 54.5-112.5 13.56-7.68 27.9-12.85 43-15.5z" opacity=".954"/><path d="M2270.5 1238.5h29l.5 183c6.42 37.72 28.25 60.56 65.5 68.5 34.03 3.9 60.53-8.27 79.5-36.5 6.5-11.49 10.16-23.82 11-37l.5-178h30l-.5 180c-3.81 42.47-24.64 73.31-62.5 92.5-48.14 19.04-90.31 10.21-126.5-26.5-13.85-16.53-22.52-35.53-26-57l-.5-189zm314 1l179 .5-142 245 131 .5v29l-181 1 140-245a4042.74 4042.74 0 0 0-127-1v-30z" opacity=".964"/></g><path fill="#4cc8ed" d="M134.5 1269.5c36.188-.66 59.354 16.34 69.5 51 3.808 14.08 5.641 28.41 5.5 43h-114c-.151 36.41 17.849 52.91 54 49.5 16.156-3.49 26.489-13.16 31-29a362.88 362.88 0 0 1 27-.5c-5.479 27.64-21.812 45.14-49 52.5-54.19 7.79-84.69-15.37-91.5-69.5-1.725-24.1 3.608-46.43 16-67 13.26-16.87 30.427-26.87 51.5-30zm-4 27c32.252-2.42 49.252 12.58 51 45h-86c1.895-22.87 13.562-37.87 35-45z" opacity=".952"/><path fill="#3eb6e5" d="M1471.5 1331.5c-38.5 1-77.16 1.33-116 1 .33 9.85-.01 19.51-1 29v-30h117z"/><path fill="#4cc8ed" d="M252.5 1336.5h75v27h-75v-27z" opacity=".966"/><path fill="#4cc7ed" d="M1354.5 1362.5v-1c.99-9.49 1.33-19.15 1-29 38.84.33 77.5 0 116-1 .67 0 1-.33 1-1l162-1c-7.85-44.33-31.85-76.5-72-96.5-27.08-11.84-54.74-13.5-83-5-10.36 4.04-19.36 10.04-27 18-1 .67-2 .67-3 0l-22-22c28.86-27.4 63.2-38.4 103-33 67.07 11.11 111.23 48.95 132.5 113.5 3.85 13.91 6.01 28.08 6.5 42.5.05 5.27-.61 10.43-2 15.5l-279 1c7.8 47.14 33.46 80.3 77 99.5 51.24 17.4 96.4 7.56 135.5-29.5 10.97-12.43 19.8-26.26 26.5-41.5 11.82-.98 23.49-.64 35 1-22.37 62.7-66.37 99.7-132 111-60.47 5.17-109.3-15.99-146.5-63.5-16.43-23.46-26.27-49.46-29.5-78z"/><defs ><path id="B" d="M1130.5 146.5c1.85-.278 3.18.389 4 2-.82 1.611-2.15 2.278-4 2v-4z"/><path id="C" d="M1403.5 473.5c1.84.139 2.17.806 1 2-.8-.457-1.13-1.124-1-2z"/><path id="D" d="M1355.5 520.5c2.35 1.043 2.52 2.376.5 4-1.77-1.182-1.93-2.515-.5-4z"/><path id="E" d="M1283.5 568.5c1.09.12 1.75.787 2 2-.8 2.457-1.8 2.457-3 0l1-2z"/><path id="F" d="M1721.5 578.5c1.33 0 2 .667 2 2-1-.333-1.67-1-2-2z"/><path id="G" d="M1874.5 752.5h3c.17 2.991-1.16 4.991-4 6-1.27-2.306-.94-4.306 1-6z"/><path id="H" d="M1769.5 750.5c.47 2.582-.19 4.582-2 6 .09-2.286.76-4.286 2-6z"/><path id="I" d="M1763.5 768.5c.34 1.983-.32 3.317-2 4 .16-1.653.83-2.986 2-4z"/><path id="J" d="M1810.5 872.5h3c.13 2.745-1.04 4.745-3.5 6-2.06-2.21-1.89-4.21.5-6z"/><path id="K" d="M1479.5 952.5c1.98-.343 3.32.324 4 2-1.65-.16-2.99-.826-4-2z"/></defs></svg>